Coordinates
version=1
nRows=16
nColumns=42
inDegrees=yes

Units are S.I. units (second, meters, Newtons, ...)
If the header above contains a line with 'inDegrees', this indicates whether rotational values are in degrees (yes) or radians (no).

endheader
time	pelvis_tilt	pelvis_list	pelvis_rotation	pelvis_tx	pelvis_ty	pelvis_tz	hip_flexion_r	hip_adduction_r	hip_rotation_r	knee_angle_r	knee_adduction_r	knee_angle_r_beta	ankle_angle_r	subtalar_angle_r	mtp_angle_r	hip_flexion_l	hip_adduction_l	hip_rotation_l	knee_angle_l	knee_adduction_l	knee_angle_l_beta	ankle_angle_l	subtalar_angle_l	mtp_angle_l	lumbar_extension	lumbar_bending	lumbar_rotation	arm_flex_r	arm_add_r	arm_rot_r	elbow_flex_r	pro_sup_r	wrist_flex_r	wrist_dev_r	arm_flex_l	arm_add_l	arm_rot_l	elbow_flex_l	pro_sup_l	wrist_flex_l	wrist_dev_l
      0.14000000	      8.55942570	     -2.48248295	    -10.85778157	     -1.36893728	      0.80207337	     -0.06712947	    -21.15445206	     -6.51249181	    -32.83505226	     29.17789592	     -6.60522130	      0.50925035	     22.74750356	     36.01915139	     -9.04795105	     26.70700582	     -7.72799202	    -28.30141606	     28.21000799	     -5.33005443	      0.49235752	     15.78504159	     13.33741973	     -9.04795105	    -22.21367318	     -0.89864454	     11.46311101	      6.34351846	    -23.46887092	      1.80320028	     43.64060694	     90.00000001	      0.00000000	      0.00000000	    -10.39196190	     -8.22786707	    -59.12405064	     29.36310337	     90.00000001	      0.00000000	      0.00000000
      0.15000000	      8.80437467	     -2.21526609	    -11.00966954	     -1.35207577	      0.80162108	     -0.06770790	    -21.26340644	     -7.34708771	    -31.62425970	     31.18187399	     -7.19719353	      0.54422637	     20.22225540	     34.99604035	     -8.96648530	     26.52330007	     -7.09992084	    -27.18512839	     30.11893934	     -5.75270006	      0.52567466	     14.75399406	     10.66895964	     -8.96648530	    -22.26110408	     -1.34893033	     11.14004843	      6.10873636	    -23.33687960	      1.41194167	     43.77079192	     90.00000001	      0.00000000	      0.00000000	    -10.66480435	     -8.24946915	    -59.21729394	     28.96486696	     90.00000001	      0.00000000	      0.00000000
      0.16000000	      9.00665462	     -1.96946528	    -11.15146486	     -1.33539346	      0.80146887	     -0.06840995	    -20.98737256	     -8.13249075	    -30.27346596	     33.63002386	     -7.85991957	      0.58695464	     17.59916642	     33.23214900	     -8.89454405	     26.27317711	     -6.43402669	    -25.64448879	     32.06512456	     -5.95853712	      0.55964200	     13.56413681	      7.27858370	     -8.89454405	    -22.31636452	     -1.77530193	     10.87377830	      5.87575315	    -23.20180295	      1.01144597	     43.82564666	     90.00000001	      0.00000000	      0.00000000	    -10.78876789	     -8.23873320	    -59.49984006	     28.60026058	     90.00000001	      0.00000000	      0.00000000
      0.17000000	      9.12342586	     -1.70696603	    -11.18180096	     -1.31886140	      0.80153056	     -0.06937290	    -20.31904947	     -8.76921198	    -28.40569986	     36.53261622	     -8.41273938	      0.63761444	     14.97007900	     30.22944667	     -8.80050837	     25.98387238	     -5.70909478	    -23.83229010	     33.88269709	     -5.83196109	      0.59136462	     12.42565562	      3.46234299	     -8.80050837	    -22.29732213	     -2.15090642	     10.47643763	      5.52248192	    -23.09812471	      0.53244056	     43.80940472	     90.00000001	      0.00000000	      0.00000000	    -10.80630899	     -8.14121770	    -59.77504736	     28.21326623	     90.00000001	      0.00000000	      0.00000000
      0.18000000	      9.23263177	     -1.43530219	    -11.18687138	     -1.30250823	      0.80182131	     -0.07042002	    -19.29287906	     -9.39678723	    -26.57302507	     39.89099854	     -8.98331329	      0.69622927	     12.25819928	     26.51266643	     -8.72149596	     25.61986756	     -5.09810839	    -22.59787875	     35.63150481	     -5.66167206	      0.62188708	     11.79284962	      0.96597810	     -8.72149596	    -22.31185952	     -2.52256886	     10.08845506	      5.17405056	    -23.02763235	      0.21353345	     43.75659353	     90.00000001	      0.00000000	      0.00000000	    -10.69186117	     -8.10813390	    -59.88780164	     27.96179974	     90.00000001	      0.00000000	      0.00000000
      0.19000000	      9.29507918	     -1.14105134	    -11.17755929	     -1.28640137	      0.80235691	     -0.07154176	    -17.89573426	     -9.93885346	    -24.31540143	     43.63973820	     -9.30510141	      0.76165712	      9.83980369	     21.70010666	     -8.62480806	     25.13386272	     -4.46970325	    -21.55517172	     37.08928323	     -5.39145461	      0.64733011	     11.55448864	     -1.09825196	     -8.62480806	    -22.30042081	     -2.88452916	      9.70586593	      4.79232119	    -22.92181968	     -0.07474129	     43.65370418	     90.00000001	      0.00000000	      0.00000000	    -10.42760268	     -8.03671886	    -59.87195470	     27.72369850	     90.00000001	      0.00000000	      0.00000000
      0.20000000	      9.32514357	     -0.83101558	    -11.15436823	     -1.27056638	      0.80310514	     -0.07274004	    -16.14624551	    -10.43218146	    -22.06843841	     47.65580909	     -9.52535825	      0.83175078	      7.53331035	     16.55595565	     -8.54194640	     24.52495455	     -3.85719703	    -21.07275909	     38.20917751	     -5.24499493	      0.66687595	     11.80306012	     -2.03730349	     -8.54194640	    -22.27884777	     -3.22947017	      9.29360313	      4.44053453	    -22.82666497	     -0.24493037	     43.52852551	     90.00000001	      0.00000000	      0.00000000	    -10.07546649	     -7.94771909	    -59.68387779	     27.54779380	     90.00000001	      0.00000000	      0.00000000
      0.21000000	      9.30886533	     -0.50609948	    -11.13907597	     -1.25500925	      0.80406993	     -0.07393857	    -14.07090315	    -10.85916200	    -19.70327226	     51.81041308	     -9.50950328	      0.90426229	      5.57811835	     11.10132846	     -8.46426421	     23.78757091	     -3.26919631	    -21.13682981	     38.95737496	     -5.24847915	      0.67993446	     12.49963024	     -2.07382114	     -8.46426421	    -22.22630504	     -3.56558052	      8.87686578	      4.11776010	    -22.72562850	     -0.35293922	     43.33801156	     90.00000001	      0.00000000	      0.00000000	     -9.65701047	     -7.85721244	    -59.32486826	     27.41936982	     90.00000001	      0.00000000	      0.00000000
      0.22000000	      9.26026648	     -0.18106408	    -11.13478866	     -1.23976344	      0.80528474	     -0.07509228	    -11.70974919	    -11.20265022	    -17.49597945	     55.91810725	     -9.43245594	      0.97595508	      3.91540137	      5.69052734	     -8.39663007	     22.91599655	     -2.71714322	    -21.74818399	     39.34337308	     -5.44451240	      0.68667140	     13.49713798	     -1.33938830	     -8.39663007	    -22.16639527	     -3.87669443	      8.44819841	      3.84780093	    -22.57906115	     -0.39103061	     43.08406275	     90.00000001	      0.00000000	      0.00000000	     -9.14291222	     -7.73711660	    -58.67353392	     27.35182491	     90.00000001	      0.00000000	      0.00000000
      0.23000000	      9.18638367	      0.11402217	    -11.18758083	     -1.22479379	      0.80679249	     -0.07613495	     -9.14880441	    -11.41540272	    -15.15798851	     59.81489354	     -9.08091402	      1.04396683	      2.76162227	      0.52444284	     -8.33246581	     21.88813035	     -2.25073489	    -22.71730065	     39.39842888	     -5.69602734	      0.68763230	     14.77355146	     -0.04582580	     -8.33246581	    -22.09966115	     -4.14924667	      8.05510652	      3.63370658	    -22.40020593	     -0.41010585	     42.76583025	     90.00000001	      0.00000000	      0.00000000	     -8.56404431	     -7.59242401	    -57.89662215	     27.35826834	     90.00000001	      0.00000000	      0.00000000
      0.24000000	      9.08034726	      0.35088258	    -11.27177383	     -1.21008423	      0.80859269	     -0.07704526	     -6.41845839	    -11.45047091	    -13.07226686	     63.33567272	     -8.76057535	      1.10541602	      2.02566577	     -3.92914864	     -8.27531996	     20.73769274	     -1.85114632	    -23.81553755	     39.16018868	     -5.96702253	      0.68347423	     16.11227428	      1.48736832	     -8.27531996	    -22.02180944	     -4.34876912	      7.68309134	      3.46571724	    -22.19398274	     -0.41126954	     42.39775637	     90.00000001	      0.00000000	      0.00000000	     -7.92427344	     -7.41567500	    -56.99087727	     27.41854784	     90.00000001	      0.00000000	      0.00000000
      0.25000000	      8.96557227	      0.50115705	    -11.39281410	     -1.19558352	      0.81070835	     -0.07780434	     -3.60358392	    -11.28913667	    -11.33260256	     66.36254652	     -8.55589170	      1.15824494	      1.73831783	     -7.43267821	     -8.21225729	     19.45306967	     -1.52977538	    -24.87490948	     38.68629278	     -6.17779264	      0.67520318	     17.44206354	      3.02200294	     -8.21225729	    -21.96076854	     -4.45095987	      7.34046003	      3.33695426	    -21.96319328	     -0.42024591	     42.03710226	     90.00000001	      0.00000000	      0.00000000	     -7.27839211	     -7.21388991	    -55.77428106	     27.61156538	     90.00000001	      0.00000000	      0.00000000
      0.26000000	      8.84567927	      0.55023001	    -11.54456690	     -1.18127019	      0.81312356	     -0.07840862	     -0.76398855	    -10.89783233	     -9.96070525	     68.83323902	     -8.52326810	      1.20136666	      1.91977219	     -9.92442047	     -8.16087803	     18.04893242	     -1.28360148	    -25.74763817	     38.01427418	     -6.27200765	      0.66347425	     18.64477115	      4.31070353	     -8.16087803	    -21.92129205	     -4.43642363	      7.05441086	      3.21751893	    -21.73776713	     -0.42138414	     41.65052428	     90.00000001	      0.00000000	      0.00000000	     -6.56323968	     -6.97353726	    -54.45190741	     27.86290500	     90.00000001	      0.00000000	      0.00000000
      0.27000000	      8.72013096	      0.48998633	    -11.71408356	     -1.16708824	      0.81577686	     -0.07887635	      2.03652446	    -10.28433189	     -8.99754843	     70.68637085	     -8.67346596	      1.23370991	      2.47617756	    -11.43329297	     -8.10283701	     16.53768778	     -1.13570750	    -26.54740978	     37.15945173	     -6.28631798	      0.64855478	     19.75536012	      5.47194347	     -8.10283701	    -21.89257438	     -4.29217314	      6.78558807	      3.12485728	    -21.48540708	     -0.44996176	     41.31167941	     90.00000001	      0.00000000	      0.00000000	     -5.94466766	     -6.73738056	    -52.61792604	     28.29651439	     90.00000001	      0.00000000	      0.00000000
      0.28000000	      8.61719665	      0.28101456	    -11.88374392	     -1.15303560	      0.81865325	     -0.07923530	      4.70741226	     -9.37382631	     -8.69836662	     71.84571485	     -9.31341122	      1.25394428	      3.28881745	    -11.42684478	     -8.09237985	     14.85677645	     -1.06775690	    -26.86524264	     36.13409177	     -6.04969551	      0.63065887	     20.24251442	      5.50087719	     -8.09237985	    -21.92962923	     -3.98038642	      6.53357545	      2.99461444	    -21.34297419	     -0.41249291	     41.29072053	     90.00000001	      0.00000000	      0.00000000	     -5.05794911	     -6.37190393	    -52.10755510	     28.70098545	     90.00000001	      0.00000000	      0.00000000
      0.29000000	      8.49222933	     -0.02509527	    -11.92716497	     -1.13910281	      0.82150534	     -0.07958228	      7.26145089	     -8.36814658	     -8.56691029	     72.51270293	     -9.65577503	      1.26558542	      4.00709087	    -11.31062361	     -8.08374397	     13.20746761	     -1.09037807	    -27.19889785	     35.07552082	     -5.88951705	      0.61218333	     20.66301561	      5.54292498	     -8.08374397	    -21.95580347	     -3.51272609	      6.19249417	      2.87226951	    -21.06834719	     -0.34323380	     41.28376741	     90.00000001	      0.00000000	      0.00000000	     -4.10816993	     -6.06745156	    -51.59527812	     29.13399753	     90.00000001	      0.00000000	      0.00000000
